<?xml version="1.0" encoding="utf-8"?>
<!-- Generator: Adobe Illustrator 27.1.0, SVG Export Plug-In . SVG Version: 6.00 Build 0)  -->
<svg version="1.1" id="uuid-e97edb72-18a0-40da-bd2d-a3c2a826d5f9"
	 xmlns="http://www.w3.org/2000/svg" xmlns:xlink="http://www.w3.org/1999/xlink" x="0px" y="0px" viewBox="0 0 411.1 219.9"
	 style="enable-background:new 0 0 411.1 219.9;" xml:space="preserve">
<style type="text/css">
	.st0{fill-rule:evenodd;clip-rule:evenodd;fill:none;stroke:#0EA9D4;stroke-width:2;stroke-miterlimit:10;}
	.st1{fill-rule:evenodd;clip-rule:evenodd;fill:none;stroke:#000000;stroke-width:5;stroke-miterlimit:10;}
	.st2{opacity:0.9;}
	.st3{fill:#FFFFFF;}
</style>
<g id="uuid-787e54aa-4e53-4ef2-a5a4-baf456ebd5dc">
	<path class="st0" d="M7.1,134H38l7.8,27.9L53,134h32.3l8.4,27.9l8.4-27.9h26.8l-24.5,83.7H79.8L69,178.1l-12.1,39.6H31.8L7.1,134z
		 M192.1,134.5H148l-24.7,83.6h27.5l4.5-11.7h29l4.3,11.7h26.9L192.1,134.5L192.1,134.5z M161.4,186.3l9.5-30.7l8.9,30.7H161.4z
		 M370.9,159.1c-5,0-10.5,0.6-4.5,6.2l10.4,12.4c6.9,7.7,6.7,10.9,6.7,16.8c0,14.5-14.3,23.3-23.8,23.3l-65.9,0.4
		c-9.1,0-9.6-0.6-16.3-6.7c-6.7-6.1-19.5-21.2-19.5-21.2v27.9h-30.1v-83.6h59.3c10.6,0,23.8,11.5,23.8,25.1
		c0,13.5-8.1,26.8-17.1,26.8c0,0,4,4,10.7,4c6.7,0,32.5,0,32.5,0c1.6,0,18.1,2.7,7.1-7.3c-12.1-11-13.4-20.1-13.8-27.3
		c-0.4-7.2,5.9-21.8,20.4-21.8H407v25.1L370.9,159.1L370.9,159.1L370.9,159.1z M277.1,170.7H258v-15.1h19.1
		C285.9,155.6,287.4,170.7,277.1,170.7z"/>
</g>
<g>
	<path class="st0" d="M7.1,57.8v27.9h81.6c9.5,0,21.6-8.8,21.6-23.3c0-5.8,2.2-9.6-4.6-17.4L95.2,32.8c-6-5.6,0.7-5.6,5.7-5.6h34.4
		v58.6h27.3V27.2h36.8V2.1H80.3C65.8,2.1,58.8,16,59.2,23.3c0.4,7.3,1.7,16.4,13.8,27.3c11,10-5.4,7.3-7.1,7.3L7.1,57.8L7.1,57.8z"
		/>
	<path class="st0" d="M259.9,2.1h-44.1l-24.7,83.6h27.5l4.5-11.7h29l4.3,11.7h26.9L259.9,2.1z M229.2,53.9l9.5-30.7l8.9,30.7H229.2z
		"/>
	<path class="st0" d="M370.3,57.8L370.3,57.8c-10.6,0-10.6-3.9-10.6-3.9c9.1,0,17.1-13.2,17.1-26.8S363.6,2.1,353,2.1h-59.3v83.6
		h30.1V57.9c0,0,12.8,15.1,19.5,21.2c6.7,6.1,7.3,6.7,16.3,6.7H407V57.9C407,57.9,380.9,57.8,370.3,57.8z M343,38.3L343,38.3
		l-19.1,0V23.3H343C351.8,23.3,353.3,38.3,343,38.3z"/>
</g>
<path class="st1" d="M1296.4,1008.5"/>
<g class="st2">
	<path class="st3" d="M9.3,101.5H1.2v-4.1H22v4.1h-8.1v21.9H9.3V101.5z"/>
	<path class="st3" d="M49,97.4v25.9h-4.6v-11.1H31.7v11.1h-4.6V97.4h4.6v10.7h12.7V97.4H49z"/>
	<path class="st3" d="M75.7,119.3v4H57.3V97.4h17.9v4H61.9v6.7h11.8v4H61.9v7.2H75.7z"/>
	<path class="st3" d="M110.7,110.1h4.3v10.3c-2.6,2.2-6.1,3.3-9.6,3.3c-7.6,0-13.2-5.6-13.2-13.3c0-7.7,5.6-13.3,13.3-13.3
		c4.1,0,7.5,1.4,9.8,4.2l-2.9,3c-1.9-2-4.1-3-6.8-3c-5.2,0-8.9,3.7-8.9,9.1c0,5.3,3.7,9.1,8.9,9.1c1.8,0,3.5-0.4,5-1.3V110.1z"/>
	<path class="st3" d="M138.7,117.3h-12.3l-2.4,6h-4.7l11-25.9h4.5l11.1,25.9h-4.8L138.7,117.3z M137.2,113.6l-4.6-11.3l-4.6,11.3
		H137.2z"/>
	<path class="st3" d="M150.8,97.4h4.6v21.9h12.8v4.1h-17.4V97.4z"/>
	<path class="st3" d="M189.6,117.3h-12.3l-2.4,6h-4.7l11-25.9h4.5l11.1,25.9h-4.8L189.6,117.3z M188.1,113.6l-4.6-11.3l-4.6,11.3
		H188.1z"/>
	<path class="st3" d="M215.9,123.3l-6.7-9.9l-6.6,9.9h-5.2l9.1-13.2L198,97.4h5.2l6.3,9.2l6.2-9.2h4.9l-8.6,12.5l9.2,13.4H215.9z"/>
	<path class="st3" d="M236.1,114.2v9.2h-4.6v-9.1l-9.6-16.9h4.9l7.2,12.6l7.3-12.6h4.5L236.1,114.2z"/>
	<path class="st3" d="M277.7,117.3h-12.3l-2.4,6h-4.7l11-25.9h4.5l11.1,25.9h-4.8L277.7,117.3z M276.2,113.6l-4.6-11.3l-4.6,11.3
		H276.2z"/>
	<path class="st3" d="M324.4,97.4l-8.1,25.9h-4.8l-6.1-19.2l-6.2,19.2h-4.9l-8.1-25.9h4.7l6.1,19.7l6.3-19.7h4.2l6.2,19.8l6.3-19.8
		H324.4z"/>
	<path class="st3" d="M345,117.3h-12.3l-2.4,6h-4.7l11-25.9h4.5l11.1,25.9h-4.8L345,117.3z M343.5,113.6l-4.6-11.3l-4.6,11.3H343.5z
		"/>
	<path class="st3" d="M357.1,97.4h4.6v25.9h-4.6V97.4z"/>
	<path class="st3" d="M375,101.5h-8.1v-4.1h20.8v4.1h-8.1v21.9H375V101.5z"/>
	<path class="st3" d="M390.6,120.6l1.6-3.7c2,1.7,5.1,2.9,8.1,2.9c3.8,0,5.4-1.4,5.4-3.4c0-5.6-14.6-1.9-14.6-11.6
		c0-4.2,3.2-7.7,9.9-7.7c2.9,0,6,0.8,8.2,2.3l-1.4,3.7c-2.2-1.4-4.6-2-6.8-2c-3.8,0-5.3,1.6-5.3,3.5c0,5.5,14.5,1.9,14.5,11.5
		c0,4.2-3.2,7.7-9.9,7.7C396.4,123.7,392.6,122.5,390.6,120.6z"/>
</g>
</svg>
