<?xml version="1.0" encoding="utf-8"?>
<!-- Generator: Adobe Illustrator 27.1.0, SVG Export Plug-In . SVG Version: 6.00 Build 0)  -->
<svg version="1.1" id="uuid-e97edb72-18a0-40da-bd2d-a3c2a826d5f9"
	 xmlns="http://www.w3.org/2000/svg" xmlns:xlink="http://www.w3.org/1999/xlink" x="0px" y="0px" viewBox="0 0 411.1 219.9"
	 style="enable-background:new 0 0 411.1 219.9;" xml:space="preserve">
<style type="text/css">
	.st0{fill:none;stroke:#0EA9D4;stroke-width:2;stroke-miterlimit:10;}
	.st1{fill:none;stroke:#000000;stroke-width:5;stroke-miterlimit:10;}
	.st2{opacity:0.8;}
	.st3{fill:#FFFFFF;}
</style>
<g id="uuid-787e54aa-4e53-4ef2-a5a4-baf456ebd5dc">
	<path class="st0" d="M7.1,134H38l7.8,27.9L53,134h32.3l8.4,27.9l8.4-27.9h26.8l-24.5,83.7H79.8L69,178.1l-12.1,39.6H31.8L7.1,134z
		 M192.1,134.5H148l-24.7,83.6h27.5l4.5-11.7h29l4.3,11.7h26.9L192.1,134.5L192.1,134.5z M161.4,186.3l9.5-30.7l8.9,30.7H161.4z
		 M370.9,159.1c-5,0-10.5,0.6-4.5,6.2l10.4,12.4c6.9,7.7,6.7,10.9,6.7,16.8c0,14.5-14.3,23.3-23.8,23.3l-65.9,0.4
		c-9.1,0-9.6-0.6-16.3-6.7c-6.7-6.1-19.5-21.2-19.5-21.2v27.9h-30.1v-83.6h59.3c10.6,0,23.8,11.5,23.8,25.1
		c0,13.5-8.1,26.8-17.1,26.8c0,0,4,4,10.7,4s32.5,0,32.5,0c1.6,0,18.1,2.7,7.1-7.3c-12.1-11-13.4-20.1-13.8-27.3s5.9-21.8,20.4-21.8
		H407v25.1L370.9,159.1L370.9,159.1L370.9,159.1z M277.1,170.7H258v-15.1h19.1C285.9,155.6,287.4,170.7,277.1,170.7z"/>
</g>
<g>
	<path class="st0" d="M7.1,57.8v27.9h81.6c9.5,0,21.6-8.8,21.6-23.3c0-5.8,2.2-9.6-4.6-17.4L95.2,32.8c-6-5.6,0.7-5.6,5.7-5.6h34.4
		v58.6h27.3V27.2h36.8V2.1H80.3C65.8,2.1,58.8,16,59.2,23.3S60.9,39.7,73,50.6c11,10-5.4,7.3-7.1,7.3L7.1,57.8L7.1,57.8z"/>
	<path class="st0" d="M259.9,2.1h-44.1l-24.7,83.6h27.5l4.5-11.7h29l4.3,11.7h26.9L259.9,2.1z M229.2,53.9l9.5-30.7l8.9,30.7H229.2z
		"/>
	<path class="st0" d="M370.3,57.8L370.3,57.8c-10.6,0-10.6-3.9-10.6-3.9c9.1,0,17.1-13.2,17.1-26.8s-13.2-25-23.8-25h-59.3v83.6
		h30.1V57.9c0,0,12.8,15.1,19.5,21.2c6.7,6.1,7.3,6.7,16.3,6.7H407V57.9C407,57.9,380.9,57.8,370.3,57.8z M343,38.3L343,38.3h-19.1
		v-15H343C351.8,23.3,353.3,38.3,343,38.3z"/>
</g>
<path class="st1" d="M1296.4,1008.5"/>
<g class="st2">
	<path class="st3" d="M28.2,115.5v4.4H9.9V96.2h17.9v4.4H15.3v5.1h11v4.3h-11v5.5H28.2z"/>
	<path class="st3" d="M47.2,119.9l-5.7-8.2l-5.6,8.2h-6.3l8.7-12l-8.3-11.6h6.2l5.4,7.7l5.3-7.7H53l-8.2,11.4l8.8,12.2H47.2z"/>
	<path class="st3" d="M76.2,104.8c0,5.3-4,8.5-10.3,8.5h-4.8v6.5h-5.5V96.2H66C72.3,96.2,76.2,99.5,76.2,104.8z M70.7,104.8
		c0-2.6-1.7-4.1-5-4.1h-4.5v8.2h4.5C69,108.9,70.7,107.4,70.7,104.8z"/>
	<path class="st3" d="M80.1,96.2h5.5v19.2h11.9v4.5H80.1V96.2z"/>
	<path class="st3" d="M98.6,108.1c0-7,5.5-12.2,12.9-12.2c7.4,0,12.9,5.2,12.9,12.2c0,7.1-5.5,12.2-12.9,12.2
		C104.1,120.3,98.6,115.1,98.6,108.1z M119,108.1c0-4.5-3.2-7.6-7.4-7.6c-4.2,0-7.4,3.1-7.4,7.6s3.2,7.6,7.4,7.6
		C115.8,115.6,119,112.6,119,108.1z"/>
	<path class="st3" d="M143.7,119.9l-4.6-6.6h-0.3h-4.8v6.6h-5.5V96.2h10.2c6.3,0,10.3,3.3,10.3,8.6c0,3.5-1.8,6.1-4.9,7.5l5.3,7.6
		H143.7z M138.6,100.7h-4.5v8.2h4.5c3.3,0,5-1.6,5-4.1C143.6,102.2,141.9,100.7,138.6,100.7z"/>
	<path class="st3" d="M171.8,115.5v4.4h-18.3V96.2h17.9v4.4h-12.4v5.1h11v4.3h-11v5.5H171.8z"/>
	<path class="st3" d="M190.6,100.7H183v-4.5h20.6v4.5h-7.6v19.2h-5.5V100.7z"/>
	<path class="st3" d="M228.3,96.2v23.6h-5.5v-9.7h-10.7v9.7h-5.5V96.2h5.5v9.3h10.7v-9.3H228.3z"/>
	<path class="st3" d="M252.2,115.5v4.4h-18.3V96.2h17.9v4.4h-12.4v5.1h11v4.3h-11v5.5H252.2z"/>
	<path class="st3" d="M282.1,107.7h5v9.6c-2.6,2-6.2,3-9.6,3c-7.4,0-12.9-5.1-12.9-12.2c0-7.1,5.5-12.2,13-12.2
		c4.2,0,7.6,1.4,9.9,4.1l-3.5,3.2c-1.7-1.8-3.7-2.7-6.1-2.7c-4.6,0-7.7,3.1-7.7,7.6c0,4.4,3.1,7.6,7.7,7.6c1.5,0,2.9-0.3,4.3-1
		V107.7z"/>
	<path class="st3" d="M307.8,114.8h-11l-2.1,5.1h-5.6l10.5-23.6h5.4l10.6,23.6h-5.7L307.8,114.8z M306,110.7l-3.8-9.1l-3.8,9.1H306z
		"/>
	<path class="st3" d="M318.1,96.2h5.5v19.2h11.9v4.5h-17.3V96.2z"/>
	<path class="st3" d="M354.3,114.8h-11l-2.1,5.1h-5.6l10.5-23.6h5.4l10.6,23.6h-5.7L354.3,114.8z M352.5,110.7l-3.8-9.1l-3.8,9.1
		H352.5z"/>
	<path class="st3" d="M378.2,119.9l-5.7-8.2l-5.6,8.2h-6.3l8.8-12l-8.3-11.6h6.2l5.4,7.7l5.3-7.7h5.9l-8.2,11.4l8.8,12.2H378.2z"/>
	<path class="st3" d="M397.8,111.5v8.4h-5.5v-8.4l-9.2-15.2h5.8l6.3,10.5l6.3-10.5h5.4L397.8,111.5z"/>
</g>
</svg>
